<svg width="512" height="494.37" xmlns="http://www.w3.org/2000/svg" clip-rule="evenodd" fill-rule="evenodd" image-rendering="optimizeQuality" text-rendering="geometricPrecision" shape-rendering="geometricPrecision">

 <g>
  <title>Layer 1</title>
  <path fill="#ffdb70" id="svg_1" d="m0,150.27l18.66,1.39c19.34,-21.88 26.94,-86.6 140.95,-73.94c-4.14,277.31 -125.75,306.56 -118.15,363.45c2.76,32.24 28.33,52.05 55.96,53.2c87.3,-2.99 83.38,-120.68 110.56,-417.34l112.62,0c-5.98,104.57 -22.34,209.13 -24.18,311.63c1.38,68.17 42.84,104.56 97.43,105.02c89.82,3 118.15,-101.8 118.15,-146.48l-19.35,0c-1.84,36.85 -19.57,63.34 -57.35,64.95c-102.95,1.38 -46.29,-181.03 -45.6,-333.74l122.3,0.7l-0.69,-78.08c-508.33,-2.47 -443.81,-12.43 -511.31,149.24z" fill-rule="nonzero"/>
 </g>
</svg>