<svg width="512" height="445.97" xmlns="http://www.w3.org/2000/svg" clip-rule="evenodd" fill-rule="evenodd" image-rendering="optimizeQuality" text-rendering="geometricPrecision" shape-rendering="geometricPrecision">

 <g>
  <title>Layer 1</title>
  <path fill="#ffdb70" id="svg_1" d="m76.83,122.53l-20.86,-20.01l-47.51,0c-2.3,0 -4.42,-0.96 -5.96,-2.48a8.42,8.42 0 0 1 -2.5,-5.98l0,-64.93c0,-2.33 0.97,-4.44 2.49,-5.97l0.21,-0.19c1.52,-1.43 3.57,-2.31 5.76,-2.31l85.18,0c2.3,0 4.43,0.97 5.96,2.5c1.53,1.53 2.5,3.66 2.5,5.97l0,64.93c0,2.31 -0.95,4.43 -2.49,5.97l-0.21,0.19a8.418,8.418 0 0 1 -5.76,2.3l-11.04,0l0,17.82c0,1.83 -1.48,3.31 -3.3,3.31c-0.99,0 -1.87,-0.43 -2.47,-1.12zm325.96,-10.13l17.14,-16.43c0.66,-0.64 1.52,-0.95 2.38,-0.95l50.87,-0.02c0.53,0 1.03,-0.22 1.37,-0.56c0.34,-0.35 0.57,-0.85 0.57,-1.38l0,-58.62c0,-0.52 -0.23,-1.02 -0.58,-1.36c-0.35,-0.35 -0.84,-0.58 -1.36,-0.58l-88.76,0c-0.51,0 -1.01,0.23 -1.36,0.58c-0.35,0.35 -0.58,0.84 -0.58,1.36l0,58.62c0,0.52 0.22,1.02 0.58,1.37c0.34,0.34 0.84,0.57 1.36,0.57l14.94,0c1.89,0 3.43,1.55 3.43,3.44l0,13.96zm-147.15,280.77c11.22,0 20.32,9.1 20.32,20.32s-9.1,20.31 -20.32,20.31s-20.31,-9.09 -20.31,-20.31c0,-11.22 9.09,-20.32 20.31,-20.32zm-52.16,-115.82c26.42,29.69 86.25,24.46 108.37,0.15c-5.14,-5.74 -10.61,-13.78 -15.32,-20.68c-1.06,-1.55 -2.07,-3.04 -3.04,-4.44c-9.98,6.72 -21.86,10.85 -36.76,10.81c-16.59,-0.04 -29.5,-5.73 -40.23,-14.43c-3.02,8.99 -7.43,21.37 -11.69,27.27c-0.38,0.53 -0.83,0.97 -1.33,1.32zm102.84,52.62l-213.99,0c-8.14,0 -14.75,7.62 -13.53,16.93l12.82,99.07l-32.59,0c0.02,-52.91 -18.75,-117.82 36.61,-148.69c20.62,-11.5 78.61,-15.4 101.79,-30.59c3.55,-6.65 7.48,-18.59 9.82,-25.71c0.27,-0.8 -0.16,0.52 0.24,-0.69c-8.52,-9.15 -15.48,-19.96 -22.17,-30.59l-19.09,-30.35c-6.98,-10.42 -10.61,-19.94 -10.84,-27.74c-0.1,-3.68 0.52,-7.02 1.88,-9.94c1.42,-3.07 3.61,-5.64 6.57,-7.63c1.37,-0.93 2.92,-1.71 4.62,-2.36c-1.24,-16.46 -1.7,-37.22 -0.9,-54.58c0.41,-4.13 1.2,-8.25 2.35,-12.37c6.99,-24.98 28.46,-42.97 52.98,-51.44c11.89,-4.11 7.3,-13.91 19.33,-13.26c28.5,1.56 72.47,19.92 89.37,39.41c23.68,27.3 17.57,60.91 16.77,94.21c5.3,1.61 8.69,4.97 10.08,10.4c1.54,6.02 -0.13,14.51 -5.24,26.08l-0.01,0c-0.1,0.21 -0.2,0.42 -0.32,0.62l-21.76,35.84c-8.39,13.81 -16.91,27.66 -28.27,38.3l-0.56,0.51c1.09,1.57 2.27,3.29 3.5,5.1c3.78,5.54 8.08,11.85 12.07,16.78c23.64,14.7 80.55,18.66 100.88,30c50.9,28.37 33.5,98.44 36.46,148.69l-32.44,0l12.82,-99.07c1.21,-9.32 -5.39,-16.93 -13.53,-16.93l-115.72,0zm-126.85,-189.48c-4.23,0.17 -7.43,1.05 -9.63,2.52c-1.25,0.84 -2.17,1.91 -2.76,3.18c-0.65,1.42 -0.95,3.14 -0.9,5.12c0.17,5.81 3.21,13.4 9.1,22.15l0.08,0.13l19.1,30.36c7.66,12.18 15.68,24.59 25.66,33.71c9.59,8.77 21.23,14.71 36.61,14.75c16.67,0.04 28.86,-6.14 38.75,-15.4c10.29,-9.62 18.41,-22.83 26.41,-36l21.51,-35.43c4.01,-9.15 5.47,-15.27 4.55,-18.86c-0.54,-2.14 -2.91,-3.18 -6.93,-3.39c-0.85,-0.04 -1.73,-0.05 -2.62,-0.03c-0.96,0.03 -1.96,0.1 -3,0.19c-0.58,0.06 -1.13,0.02 -1.67,-0.1c-1.91,0.1 -3.88,-0.03 -5.89,-0.33l7.37,-32.6c-54.66,8.62 -95.54,-31.98 -153.32,-8.11l4.16,38.42c-2.33,0.11 -4.54,0.03 -6.58,-0.28zm249.61,33.4c4.09,0 7.41,3.32 7.41,7.42c0,4.09 -3.32,7.42 -7.41,7.42c-4.1,0 -7.43,-3.33 -7.43,-7.42c0,-4.1 3.33,-7.42 7.43,-7.42zm30.69,31.85l14.85,-25.67l19.79,25.53l0,14.35l-84.92,0l0,-4.94l13.49,-0.31l6.18,-15.15l3.09,10.82l9.28,0l8.04,-20.72l10.2,16.09zm-55.47,-55.26l95.3,0c3.4,0 6.51,1.4 8.76,3.64l0.2,0.23c2.13,2.23 3.44,5.26 3.44,8.54l0,61.14c0,3.39 -1.4,6.5 -3.65,8.75c-2.27,2.26 -5.35,3.66 -8.75,3.66l-95.3,0c-3.39,0 -6.5,-1.41 -8.75,-3.66a12.327,12.327 0 0 1 -3.65,-8.75l0,-61.14c0,-3.41 1.4,-6.52 3.65,-8.77a12.36,12.36 0 0 1 8.75,-3.64zm95.3,7.83l-95.3,0c-1.25,0 -2.4,0.52 -3.23,1.34c-0.82,0.83 -1.34,1.98 -1.34,3.24l0,61.14c0,1.26 0.52,2.41 1.34,3.23a4.5,4.5 0 0 0 3.23,1.35l95.3,0c1.25,0 2.4,-0.51 3.22,-1.34a4.54,4.54 0 0 0 1.35,-3.24l0,-61.14c0,-1.2 -0.47,-2.3 -1.21,-3.12l-0.13,-0.12a4.61,4.61 0 0 0 -3.23,-1.34zm-98.87,-81c-1.9,0 -3.45,-1.54 -3.45,-3.44s1.55,-3.44 3.45,-3.44l47.56,0a3.44,3.44 0 1 1 0,6.88l-47.56,0zm0,-21.1c-1.9,0 -3.45,-1.54 -3.45,-3.44s1.55,-3.45 3.45,-3.45l58.32,0c1.9,0 3.44,1.55 3.44,3.45c0,1.9 -1.54,3.44 -3.44,3.44l-58.32,0zm22.95,45.67l-21.8,20.9c-0.63,0.68 -1.53,1.11 -2.52,1.11c-1.9,0 -3.44,-1.55 -3.44,-3.44l0,-18.57l-11.5,0c-2.42,0 -4.64,-1 -6.23,-2.59a8.843,8.843 0 0 1 -2.59,-6.23l0,-58.62c0,-2.41 1.01,-4.63 2.6,-6.22c1.6,-1.6 3.81,-2.6 6.22,-2.6l88.76,0c2.41,0 4.63,1 6.22,2.6a8.783,8.783 0 0 1 2.59,6.22l0,58.62c0,2.42 -0.99,4.62 -2.58,6.22c-1.61,1.6 -3.81,2.6 -6.23,2.6l-49.5,0zm-402.17,54.84l94.58,0c3.24,0 6.21,1.34 8.34,3.49c2.16,2.13 3.49,5.1 3.49,8.34l0,61.49c0,3.23 -1.34,6.19 -3.48,8.33c-2.16,2.16 -5.12,3.5 -8.35,3.5l-94.58,0c-3.24,0 -6.2,-1.34 -8.35,-3.48l-0.24,-0.27c-2,-2.12 -3.23,-4.97 -3.23,-8.08l0,-61.49c0,-3.24 1.33,-6.2 3.47,-8.34c2.16,-2.15 5.12,-3.49 8.35,-3.49zm38.98,32.42l19.88,13.87c0.35,0.21 0.66,0.49 0.9,0.85c0.94,1.35 0.6,3.21 -0.75,4.14l-19.84,13.71c-0.52,0.43 -1.18,0.68 -1.89,0.68c-1.65,0 -2.99,-1.34 -2.99,-2.99l0,-27.83c0.02,-0.59 0.19,-1.19 0.56,-1.7a2.957,2.957 0 0 1 4.13,-0.73zm59.62,-13.08l-102.62,0l0,53.98c0,1.03 0.39,1.98 1.02,2.68l0.17,0.16c0.73,0.72 1.74,1.18 2.83,1.18l94.58,0c1.1,0 2.12,-0.45 2.83,-1.17c0.74,-0.74 1.19,-1.75 1.19,-2.85l0,-53.98zm-42.13,-108.33c2.4,0 4.35,1.94 4.35,4.34c0,2.39 -1.95,4.34 -4.35,4.34l-45.63,0c-2.39,0 -4.34,-1.95 -4.34,-4.34c0,-2.4 1.95,-4.34 4.34,-4.34l45.63,0zm0,-23.16c2.4,0 4.35,1.95 4.35,4.34c0,2.4 -1.95,4.35 -4.35,4.35l-55.95,0c-2.4,0 -4.35,-1.95 -4.35,-4.35c0,-2.39 1.95,-4.34 4.35,-4.34l55.95,0z"/>
 </g>
</svg>