<svg width="418" height="512.535" xmlns="http://www.w3.org/2000/svg" clip-rule="evenodd" fill-rule="evenodd" image-rendering="optimizeQuality" text-rendering="geometricPrecision" shape-rendering="geometricPrecision">

 <g>
  <title>Layer 1</title>
  <path fill="#ffdb70" id="svg_1" d="m40.896,237.026c0.444,-78.78 0.889,-144.007 1.336,-222.478c0.018,-5.233 3.732,-9.586 8.658,-10.603l-0.004,-0.015c53.592,-11.186 123.886,0.624 158.684,46.863c36.663,-44.975 104.261,-54.93 158.603,-46.989c5.425,0.795 9.33,5.457 9.325,10.785c0.02,0 0.011,205.116 0.011,223.403c0,6.029 -4.887,10.916 -10.915,10.916c-0.871,0 -1.718,-0.105 -2.527,-0.294c-20.718,-3.267 -48.53,-1.344 -70.273,4.484l-0.181,20.595c3.1,-0.091 6.2,-0.125 9.3,-0.106c27.864,0.177 65.683,4.722 93.256,11.83c0,-82.659 -0.011,-151.791 -0.011,-234.435l10.927,0c6.027,0 10.915,4.887 10.915,10.916l0,237.8c0,6.028 -4.888,10.916 -10.915,10.916c-1.231,0 -2.414,-0.205 -3.519,-0.58c-24.055,-6.888 -54.318,-11.953 -80.722,-13.867c1.621,2.518 2.854,5.38 3.784,8.476l13.992,0c0.563,0 1.111,0.065 1.636,0.189c12.586,2.019 18.453,10.811 21.008,22.01a7.141,7.141 0 0 1 1.896,-0.255l9.848,0c0.564,0 1.113,0.066 1.64,0.191c27.033,4.324 26.638,39.142 26.379,61.855c-0.008,0.761 -0.017,1.479 -0.017,5.486l0.565,25.171c0.016,0.263 0.019,0.529 0.007,0.799c-1.209,24.503 -12.31,43.636 -23.751,63.356l-0.969,1.692c-5.047,8.826 -10.9,15.567 -17.568,20.177c-6.788,4.692 -14.297,7.104 -22.538,7.192l-0.652,0.029l-84.431,0l0,-0.024c-8.493,0.169 -15.088,-3.546 -19.937,-10.816c-3.904,-5.848 -6.499,-14.044 -7.898,-24.372l-53.319,-80.679c-3.149,-4.217 -7.429,-10.777 -10.64,-18.062c-2.409,-5.466 -4.234,-11.397 -4.616,-17.22c-0.451,-6.887 0.506,-12.435 2.468,-16.773c2.438,-5.386 6.31,-8.898 11,-10.805c4.375,-1.78 9.317,-2.044 14.299,-1.054c5.972,1.188 12.128,4.212 17.377,8.551c4.393,3.63 11.565,9.52 18.424,15.127l6.061,4.952l0.284,-53.02c-3.991,1.48 -7.983,3.1 -11.977,4.864a10.936,10.936 0 0 1 -6.199,1.81a10.933,10.933 0 0 1 -6.196,-1.81c-29.266,-12.933 -58.454,-18.06 -87.631,-17.874c-29.92,0.189 -70.303,5.989 -100.736,14.704c-1.105,0.375 -2.288,0.58 -3.522,0.58c-6.027,0 -10.915,-4.888 -10.915,-10.916l0,-237.8c0,-6.029 4.888,-10.916 10.915,-10.916l10.916,0l0,234.435c27.576,-7.108 65.392,-11.653 93.256,-11.83c25.738,-0.162 51.474,3.419 77.24,12.158c-16.027,-12.993 -33.898,-22.509 -52.946,-28.723c-24.01,-7.835 -60.141,-10.438 -86.723,-8.156c-6.005,0.492 -11.273,-3.974 -11.765,-9.979a10.608,10.608 0 0 1 0.003,-1.861zm324.052,103.841c0.295,7.593 -0.147,15.445 -0.548,22.562c-0.239,4.226 -0.46,8.143 -0.46,11.734a7.143,7.143 0 0 1 -14.283,0c0,-3.396 0.248,-7.781 0.515,-12.516c1,-17.705 2.336,-41.379 -10.03,-43.721l-11.158,0c0.556,8.456 0.053,17.402 -0.399,25.417c-0.239,4.225 -0.46,8.142 -0.46,11.732a7.143,7.143 0 0 1 -14.284,0c0,-3.395 0.248,-7.78 0.516,-12.515c0.999,-17.704 2.335,-41.381 -10.032,-43.723l-9.369,0a7.195,7.195 0 0 1 -1.57,-0.175l-0.325,36.85a7.115,7.115 0 0 1 -14.227,-0.111l0.754,-85.89l-0.022,-0.565c0,-12.428 -5.069,-20.264 -11.544,-23.538c-2.377,-1.202 -4.931,-1.808 -7.454,-1.812a16.324,16.324 0 0 0 -7.414,1.796c-6.412,3.259 -11.413,11.127 -11.413,23.849l-0.027,0l-0.76,142.342a7.115,7.115 0 0 1 -14.228,-0.056l0.07,-13.121a7.122,7.122 0 0 1 -1.193,-0.773a1777.083,1777.083 0 0 1 -13.81,-11.178a5011.309,5011.309 0 0 1 -18.481,-15.182c-3.448,-2.851 -7.351,-4.809 -11.016,-5.539c-2.356,-0.468 -4.517,-0.416 -6.209,0.272c-1.379,0.561 -2.556,1.675 -3.355,3.442c-1.043,2.306 -1.532,5.593 -1.241,10.022c0.257,3.927 1.625,8.238 3.444,12.366c2.692,6.107 6.344,11.688 9.038,15.293c0.159,0.214 0.305,0.434 0.437,0.659l54.239,82.073a7.084,7.084 0 0 1 1.135,3.097c1.085,8.936 2.982,15.62 5.781,19.813c2.03,3.043 4.659,4.593 7.941,4.509l0.167,-0.002l0,-0.026l84.431,0l0.591,0.025c5.292,-0.08 10.128,-1.649 14.509,-4.679c4.843,-3.348 9.266,-8.543 13.271,-15.547l1.027,-1.747c10.541,-18.17 20.77,-35.804 21.844,-56.749l-0.543,-24.29a7.204,7.204 0 0 1 -0.077,-1.046l0.073,-5.697c0.203,-17.772 0.514,-44.991 -14.267,-47.651l-9.372,0l-0.212,-0.004zm-74.486,-109.385c20.719,-5.113 46.06,-7.293 65.22,-5.771l0,-201.458c-48.14,-4.545 -107.824,5.005 -135.596,49.25l0,191.441a343.885,343.885 0 0 1 7.347,-4.774l0.053,-9.929l-0.028,0c0,-18.89 8.423,-31.079 19.224,-36.571a30.51,30.51 0 0 1 13.886,-3.302a30.82,30.82 0 0 1 13.871,3.319c6.73,3.403 12.554,9.359 16.023,17.795zm57.363,183.293a5.833,5.833 0 0 1 11.665,0l0,26.677a5.833,5.833 0 0 1 -11.665,0l0,-26.677zm-34.477,-11.786a5.833,5.833 0 0 1 11.665,0l0,38.461a5.834,5.834 0 0 1 -11.665,0l0,-38.461zm-115.089,-140.143l0,-189.668c-25.624,-45.145 -86.901,-56.214 -134.335,-49.438l-1.225,202.662c25.265,-0.9 60.166,2.315 83.419,9.901c18.519,6.04 36.056,14.847 52.141,26.543z" fill-rule="nonzero"/>
 </g>
</svg>