<svg width="1146" height="1280" xmlns="http://www.w3.org/2000/svg" preserveAspectRatio="xMidYMid meet" version="1.0">
 <metadata>Created by potrace 1.15, written by Peter Selinger 2001-2017</metadata>

 <g>
  <title>Layer 1</title>
  <g id="svg_1" fill="#000000" transform="translate(0.000000,1280.000000) scale(0.100000,-0.100000)">
   <path fill="#ffdb70" id="svg_2" d="m11050,12794c-196,-38 -421,-174 -625,-379c-71,-72 -152,-149 -180,-171c-136,-111 -352,-236 -544,-315c-225,-93 -375,-140 -874,-274c-49,-13 -94,-28 -100,-33c-627,-491 -872,-720 -992,-927c-80,-138 -198,-234 -507,-410c-76,-43 -176,-108 -223,-144c-143,-110 -174,-130 -325,-202c-80,-39 -179,-87 -220,-107c-169,-82 -253,-150 -383,-310c-143,-174 -357,-360 -747,-647c-248,-183 -415,-315 -515,-404c-128,-116 -206,-152 -328,-153c-120,0 -200,42 -238,127c-24,53 -24,147 0,200c26,58 103,123 220,186c174,93 235,130 430,261c482,323 839,603 1214,952c148,138 148,138 285,201c75,34 298,126 494,205l358,142l15,51c70,232 -31,433 -254,508c-98,34 -199,32 -271,-3c-80,-39 -117,-74 -241,-221c-114,-137 -175,-190 -238,-207c-21,-5 -109,-9 -197,-7c-155,2 -161,1 -224,-26c-271,-118 -464,-155 -983,-188l-188,-11l-97,-56c-270,-156 -645,-277 -1062,-346c-237,-39 -324,-46 -563,-46c-261,0 -312,-7 -406,-54c-26,-14 -72,-47 -102,-73c-30,-27 -78,-69 -108,-93c-29,-24 -120,-121 -201,-215c-166,-192 -191,-216 -274,-274c-74,-51 -112,-53 -178,-12c-79,50 -125,134 -195,356c-46,145 -80,236 -141,373c-66,147 -95,196 -155,259c-63,66 -132,100 -234,112c-43,5 -107,15 -143,21c-36,7 -98,9 -140,6c-312,-25 -562,-214 -632,-479c-66,-251 -42,-447 85,-692c51,-98 52,-101 43,-154c-6,-35 -5,-73 2,-114c34,-181 173,-317 342,-333c110,-11 195,-66 342,-221c46,-48 124,-130 174,-183l90,-95l17,-95c26,-148 35,-260 52,-610c24,-497 41,-617 129,-884c65,-196 83,-238 139,-324c99,-153 248,-295 483,-461c66,-47 151,-107 189,-135c186,-133 292,-191 425,-234c74,-23 101,-27 210,-27c78,0 133,5 146,12c12,7 55,40 95,74c183,153 290,199 467,199c161,0 326,62 407,152c59,66 80,129 71,225c-7,82 3,112 52,159c56,54 217,106 236,76c12,-19 23,-817 16,-1152l-7,-325l-35,-55c-99,-154 -192,-391 -223,-565c-27,-158 -39,-586 -26,-1000c13,-395 35,-850 52,-1030c16,-175 24,-915 11,-1026c-40,-331 -253,-572 -645,-728c-85,-34 -240,-80 -406,-121c-136,-34 -276,-90 -334,-134c-37,-28 -74,-87 -92,-143l-6,-23l128,0c371,0 992,27 1293,56c218,21 247,20 370,-10c203,-50 283,-45 351,23c71,70 79,184 29,406c-34,152 -34,128 -6,465c41,492 109,843 230,1184c25,72 50,134 55,139c22,22 117,29 496,36c376,8 403,10 457,30c72,28 131,90 153,163c13,40 18,103 20,263c16,976 42,1319 126,1665c11,47 43,195 70,330c67,328 161,757 319,1455c168,743 360,1624 360,1650c0,1 156,148 348,327c529,496 830,810 1057,1103c38,50 115,146 171,215c55,69 197,251 314,405c364,478 479,613 736,865c174,170 194,193 244,284c64,115 126,189 184,218c22,11 82,53 131,92c205,161 400,273 576,331l96,31l172,159c180,166 263,255 333,358c58,85 101,192 101,247c-1,104 -85,235 -180,280c-47,22 -166,35 -223,24z"/>
  </g>
 </g>
</svg>